<svg width="32" height="32" viewBox="0 0 32 32" fill="none" xmlns="http://www.w3.org/2000/svg">
  <rect width="32" height="32" rx="6" fill="#0A0A0B"/>
  <rect x="4" y="1" width="5" height="5" rx="1" fill="white" opacity="0.25"/>
  <rect x="4" y="7" width="5" height="5" rx="1" fill="white" opacity="0.45"/>
  <rect x="4" y="13" width="5" height="5" rx="1" fill="white" opacity="0.65"/>
  <rect x="4" y="19" width="5" height="5" rx="1" fill="white" opacity="0.85"/>
  <rect x="4" y="25" width="5" height="5" rx="1" fill="white"/>
  <rect x="12" y="7" width="5" height="5" rx="1" fill="white" opacity="0.25"/>
  <rect x="12" y="13" width="5" height="5" rx="1" fill="white" opacity="0.5"/>
  <rect x="12" y="19" width="5" height="5" rx="1" fill="white" opacity="0.8"/>
  <rect x="12" y="25" width="5" height="5" rx="1" fill="white"/>
  <rect x="20" y="25" width="5" height="5" rx="1" fill="white" opacity="0.6"/>
  <rect x="27" y="25" width="5" height="5" rx="1" fill="white" opacity="0.3"/>
</svg>
